<svg width="150" height="43" viewBox="0 0 150 43" fill="none" xmlns="http://www.w3.org/2000/svg">
<path d="M8.38131 42.1326H6.14633V11.9603C6.14633 10.1723 5.75521 8.79405 4.97296 7.82556C4.22797 6.85706 2.94285 6.37282 1.11761 6.37282H0.558868V5.25533H4.19072C5.90421 5.25533 7.35695 5.5347 8.54894 6.09344C9.74093 6.65219 10.8025 7.49031 11.7338 8.6078L31.2899 32.9133V5.25533H33.5249V42.6913H32.4074L8.38131 12.7984V42.1326ZM45.1787 42.6913C43.9867 42.6913 42.7761 42.4492 41.5468 41.9649C40.3176 41.4434 39.256 40.6053 38.362 39.4506C37.5052 38.2958 37.0768 36.7686 37.0768 34.8689C37.0768 32.0379 38.3806 30.0264 40.9881 28.8344C43.6328 27.6424 47.0784 27.0464 51.3249 27.0464H53.0011C53.0011 23.3959 52.4982 20.9002 51.4925 19.5592C50.4868 18.2182 49.034 17.5477 47.1343 17.5477C45.458 17.5477 44.117 17.9016 43.1113 18.6094C42.1056 19.3171 41.3978 20.5463 40.9881 22.2971H38.4737C38.4737 21.0306 38.5482 20.0435 38.6972 19.3357C38.8462 18.5907 39.2373 17.9016 39.8706 17.2684C40.5411 16.5979 41.6399 16.1136 43.1672 15.8156C44.7317 15.4804 46.4265 15.3128 48.2518 15.3128C51.269 15.3128 53.653 16.1323 55.4037 17.7712C57.1545 19.373 58.0298 22.4647 58.0298 27.0464V42.1326H55.2361L53.2805 39.6182H53.0011C52.3306 40.475 51.3435 41.2013 50.0398 41.7973C48.736 42.3933 47.1157 42.6913 45.1787 42.6913ZM47.693 40.177C48.9223 40.177 49.9466 39.879 50.7661 39.283C51.5856 38.687 52.3306 37.8675 53.0011 36.8245V29.2814H51.3249C48.5684 29.2814 46.3893 29.8029 44.7875 30.8459C43.1858 31.8516 42.3849 33.1926 42.3849 34.8689C42.3849 36.5824 42.8878 37.9047 43.8936 38.836C44.9365 39.73 46.203 40.177 47.693 40.177ZM63.4318 22.2971C62.5378 20.2111 61.681 18.7584 60.8615 17.9389C60.042 17.0821 58.9618 16.6165 57.6208 16.542V15.4245C57.8071 15.4245 58.0678 15.4059 58.4031 15.3686C58.7755 15.3314 59.148 15.3128 59.5205 15.3128C61.4948 15.3128 63.2828 15.8156 64.8845 16.8214C66.4862 17.7899 67.8645 19.6151 69.0192 22.2971L74.0479 34.3101L81.8704 15.8715H84.6641L73.2098 42.6913H72.0923L63.4318 22.2971ZM89.3056 12.519C88.4489 12.519 87.7039 12.1652 87.0707 11.4574C86.4747 10.7497 86.1767 9.91154 86.1767 8.94305C86.1767 8.16081 86.4002 7.54619 86.8472 7.09919C87.3314 6.65219 87.9646 6.42869 88.7469 6.42869C89.6036 6.42869 90.33 6.78256 90.926 7.49031C91.5592 8.19806 91.8759 9.03617 91.8759 10.0047C91.8759 10.7869 91.6337 11.4015 91.1495 11.8485C90.7025 12.2955 90.0879 12.519 89.3056 12.519ZM87.1824 22.5765C87.1824 20.6767 86.9217 19.2799 86.4002 18.3859C85.8787 17.4546 84.8357 16.989 83.2712 16.989H82.1537V15.8715H87.1824C88.5606 15.8715 89.585 16.0578 90.2555 16.4302C90.9633 16.7655 91.4661 17.3987 91.7641 18.33C92.0621 19.2612 92.2111 20.6767 92.2111 22.5765V42.1326H87.1824V22.5765ZM97.1892 22.5765C97.1892 20.6767 96.9285 19.2799 96.407 18.3859C95.8855 17.4546 94.8425 16.989 93.278 16.989H92.7192V15.8715H97.1892C98.6047 15.8715 99.6663 16.0764 100.374 16.4861C101.119 16.8586 101.641 17.4919 101.939 18.3859H102.218C102.888 17.5291 103.782 16.8027 104.9 16.2067C106.055 15.6108 107.396 15.3128 108.923 15.3128C110.413 15.3128 111.53 15.5921 112.275 16.1509C112.909 16.6351 113.56 17.4732 114.231 18.6652L111.996 20.3415C111.586 19.7827 110.99 19.373 110.208 19.1122C109.426 18.8142 108.532 18.6652 107.526 18.6652C106.409 18.6652 105.384 18.926 104.453 19.4475C103.522 19.9317 102.777 20.6022 102.218 21.459V42.1326H97.1892V22.5765ZM121.856 42.6913C120.664 42.6913 119.453 42.4492 118.224 41.9649C116.995 41.4434 115.933 40.6053 115.039 39.4506C114.182 38.2958 113.754 36.7686 113.754 34.8689C113.754 32.0379 115.058 30.0264 117.665 28.8344C120.31 27.6424 123.755 27.0464 128.002 27.0464H129.678C129.678 23.3959 129.175 20.9002 128.169 19.5592C127.164 18.2182 125.711 17.5477 123.811 17.5477C122.135 17.5477 120.794 17.9016 119.788 18.6094C118.783 19.3171 118.075 20.5463 117.665 22.2971H115.151C115.151 21.0306 115.225 20.0435 115.374 19.3357C115.523 18.5907 115.914 17.9016 116.548 17.2684C117.218 16.5979 118.317 16.1136 119.844 15.8156C121.409 15.4804 123.104 15.3128 124.929 15.3128C127.946 15.3128 130.33 16.1323 132.081 17.7712C133.831 19.373 134.707 22.4647 134.707 27.0464V42.1326H131.913L129.957 39.6182H129.678C129.008 40.475 128.02 41.2013 126.717 41.7973C125.413 42.3933 123.793 42.6913 121.856 42.6913ZM124.37 40.177C125.599 40.177 126.624 39.879 127.443 39.283C128.263 38.687 129.008 37.8675 129.678 36.8245V29.2814H128.002C125.245 29.2814 123.066 29.8029 121.465 30.8459C119.863 31.8516 119.062 33.1926 119.062 34.8689C119.062 36.5824 119.565 37.9047 120.571 38.836C121.614 39.73 122.88 40.177 124.37 40.177Z" fill="#229799"/>
<path d="M149.581 7.56635C149.581 3.38757 146.193 0 142.014 0C137.835 0 134.448 3.38757 134.448 7.56636V15.1327H142.014C146.193 15.1327 149.581 11.7451 149.581 7.56635Z" fill="#FFAE57"/>
<path d="M138.522 7.8574C138.522 6.08945 139.955 4.65625 141.723 4.65625C143.491 4.65625 144.924 6.08945 144.924 7.8574C144.924 9.62535 143.491 11.0585 141.723 11.0585H138.522V7.8574Z" fill="white"/>
</svg>
